<svg version="1.1" id="Layer_1" xmlns="http://www.w3.org/2000/svg" xmlns:xlink="http://www.w3.org/1999/xlink" x="0px" y="0px"
	 width="100%" viewBox="0 0 640 640" enable-background="new 0 0 640 640" xml:space="preserve">
<path fill="#000000" opacity="1.000000" stroke="none" 
	d="
M351.000000,641.000000 
	C331.312439,641.000000 311.624878,641.000000 291.130402,640.821838 
	C279.722595,638.666748 268.984070,637.643127 258.386963,635.515198 
	C199.659454,623.722473 148.277206,597.568054 104.109886,557.191467 
	C87.462585,541.972961 72.624596,525.123291 59.450687,506.804871 
	C58.181927,505.040649 56.999428,501.851929 54.203075,503.337891 
	C47.600113,506.846588 39.988178,505.407257 33.471943,507.842987 
	C27.649862,510.019257 23.831190,507.846802 19.106733,505.415222 
	C21.739010,503.544739 24.392214,503.592560 27.001703,503.664978 
	C29.423027,503.732147 31.715637,503.425598 33.488338,501.673462 
	C35.803673,499.384949 38.544769,498.229797 41.656937,497.258453 
	C49.837467,494.705231 50.216175,493.233368 45.817097,485.824799 
	C25.906008,452.292145 12.503263,416.347351 5.401636,377.983612 
	C3.740573,369.010406 3.743400,359.781281 1.000000,351.000000 
	C1.000000,331.645782 1.000000,312.291534 1.068103,292.089905 
	C1.601462,289.480286 2.364557,287.737915 2.483279,285.952667 
	C3.212981,274.979950 5.031019,264.164795 7.619031,253.517883 
	C36.755192,133.653534 109.748337,53.886623 226.690079,14.541579 
	C248.831528,7.092084 271.882965,3.768199 295.000000,1.000000 
	C312.020905,1.000000 329.041779,1.000000 346.911865,1.097180 
	C367.903595,3.524842 388.026001,6.255934 407.427216,12.268736 
	C526.398071,49.140072 601.654541,127.969154 633.327332,248.409882 
	C637.175903,263.044556 638.287659,278.162903 641.000000,293.000000 
	C641.000000,311.354218 641.000000,329.708466 640.940552,348.914307 
	C638.900269,362.049805 637.445923,374.446106 634.852051,386.599182 
	C619.403992,458.978851 583.316467,519.173889 526.814270,566.908264 
	C483.675110,603.353210 434.040375,626.262512 378.485443,636.514771 
	C369.344482,638.201660 359.991486,638.485840 351.000000,641.000000 
M474.657440,587.099304 
	C525.293396,557.309509 564.890991,516.743652 592.523071,464.896698 
	C618.526794,416.104980 630.146423,363.936157 627.879700,308.580261 
	C626.783325,281.804749 622.629700,255.632858 614.635498,230.132141 
	C595.808044,170.074417 561.654968,120.284836 512.585815,80.980141 
	C456.611542,36.144417 392.248688,14.172240 320.779907,13.634645 
	C290.751678,13.408769 261.085907,17.795753 232.265945,26.784693 
	C220.494064,30.456335 208.871201,34.537144 197.668762,39.722897 
	C195.831558,40.573353 192.905243,41.357723 194.766449,44.279739 
	C199.901733,52.342026 206.637421,59.671551 216.046448,61.176174 
	C228.115967,63.106239 238.825470,67.857956 249.671234,72.728012 
	C254.521545,74.905960 259.490814,76.506813 264.687775,77.796074 
	C269.764038,79.055389 275.435699,79.352943 279.816742,81.768265 
	C287.582977,86.049873 295.709351,90.056015 301.983704,96.765045 
	C306.845612,101.963768 311.467224,107.031082 310.389465,114.938141 
	C310.003967,117.766327 310.832947,120.547462 311.370575,123.326103 
	C312.254669,127.895485 313.945984,128.868896 318.309265,126.945663 
	C321.218018,125.663544 324.225616,124.850807 327.302582,124.084831 
	C334.854126,122.204971 342.399048,120.245552 349.826233,117.931549 
	C360.336121,114.657074 371.019775,112.389648 382.025909,112.721992 
	C392.513306,113.038666 402.982208,112.331581 413.533783,114.041702 
	C419.082458,114.940987 424.568573,115.800613 429.448761,118.190750 
	C432.945953,119.903557 436.374573,120.878487 440.086304,121.713432 
	C446.709686,123.203354 453.252075,124.898529 455.235504,133.109955 
	C456.366455,137.792160 457.512909,142.501129 461.899323,146.018326 
	C465.035614,148.533142 463.257996,152.306274 459.869568,155.040344 
	C454.702911,159.209229 448.569122,159.614883 442.556274,160.273285 
	C439.603790,160.596603 437.039337,163.581223 434.008423,161.853943 
	C431.178650,160.241241 428.239563,160.190750 425.287323,160.456863 
	C418.041473,161.110031 411.915955,157.073654 405.122040,155.945343 
	C401.919464,155.413483 402.289185,151.717407 399.684021,150.553528 
	C388.343597,145.487137 376.842621,143.328827 364.641388,147.709183 
	C371.625916,151.253067 374.826538,155.386444 373.699036,160.746429 
	C371.895844,169.318436 369.520569,177.687347 363.899048,184.856064 
	C360.037018,189.780991 358.260773,195.985062 354.998230,201.380081 
	C351.966766,206.392929 350.263916,212.221100 345.416046,216.026749 
	C344.201660,216.980026 343.025513,217.927963 342.649963,219.446915 
	C341.049744,225.919434 335.614319,228.921326 330.757690,232.249237 
	C325.103607,236.123611 318.414001,238.543777 314.561676,244.816788 
	C313.865021,245.951172 312.195831,246.595444 310.858124,247.210312 
	C305.361145,249.737045 304.108948,252.788788 307.926971,257.158203 
	C313.673767,263.734955 314.191040,272.279541 317.525879,279.730286 
	C319.099579,283.246246 317.326355,286.617126 317.384094,290.056671 
	C317.519562,298.124756 318.195343,306.183929 317.550507,314.265808 
	C317.384186,316.350525 317.405365,318.628113 319.569611,320.096649 
	C321.996765,319.580200 323.721436,318.120331 325.360962,316.410187 
	C333.276154,308.154297 341.033020,299.765564 348.697693,291.270935 
	C358.730927,280.151276 365.658051,267.235931 373.204224,254.665253 
	C376.779572,248.709305 378.144104,243.653152 371.134552,237.410645 
	C366.696838,233.458527 362.911621,228.786728 357.945801,225.334869 
	C356.330414,224.211990 353.801392,222.653336 355.294586,220.140060 
	C356.942810,217.365860 359.313995,218.971558 361.414124,220.018143 
	C367.599243,223.100449 372.670593,228.150314 379.550323,230.070908 
	C381.199982,230.531433 382.822845,231.900864 383.946106,233.271744 
	C386.607391,236.519653 390.241913,238.068390 393.933472,239.469238 
	C398.439117,241.179016 402.298218,244.275330 405.974518,246.922852 
	C409.416931,249.401978 411.003235,254.910324 411.682678,259.835175 
	C412.233856,263.830627 414.227600,264.779999 417.232666,262.160889 
	C419.808899,259.915588 421.868744,260.444489 424.452515,261.778778 
	C427.659180,263.434723 430.888458,264.970551 434.393402,266.133301 
	C437.666534,267.219147 442.137726,266.657898 444.085114,270.459534 
	C445.377808,272.983185 447.118011,274.537903 449.571350,275.908386 
	C452.953918,277.797882 454.058655,280.803497 452.670471,284.820526 
	C450.812134,290.197815 447.130737,294.122742 443.336273,298.056030 
	C440.334259,301.167908 440.744324,303.425629 444.636902,305.353760 
	C445.825317,305.942444 447.057953,306.518402 448.335968,306.837677 
	C459.994171,309.750153 470.518677,315.626770 481.779968,319.613678 
	C491.318451,322.990662 500.351013,327.794922 509.621033,331.828339 
	C515.992676,334.600677 523.622314,335.108276 530.708374,336.523804 
	C540.052734,338.390472 549.720398,339.035339 558.796875,341.729156 
	C567.047729,344.177979 575.142273,345.267853 583.577820,344.626617 
	C587.981812,344.291809 592.293823,344.661469 596.176331,346.713501 
	C599.575134,348.509857 602.550903,348.929077 605.240601,345.749786 
	C606.746887,347.368774 606.653320,349.972473 608.740234,350.224487 
	C614.486938,350.918396 616.618713,355.974213 620.074341,359.357697 
	C622.053101,361.295105 622.178711,363.746735 619.635437,365.776428 
	C617.051819,367.838379 613.339600,369.540405 612.286560,372.243500 
	C610.179321,377.652466 606.528625,378.551788 601.698669,378.319824 
	C599.016602,378.191010 596.869141,378.611786 596.187561,381.952911 
	C595.607178,384.798096 592.799316,384.940643 590.921204,384.045349 
	C586.434082,381.906403 581.785706,382.704712 577.175659,382.394714 
	C569.623840,381.886871 562.087280,383.084137 554.475708,380.709320 
	C548.112732,378.724121 542.233521,376.143005 536.369141,373.102997 
	C530.336243,369.975616 524.468933,366.905762 519.012695,362.640717 
	C510.193298,355.746796 500.903778,349.238007 491.086304,343.903625 
	C482.779053,339.389832 474.637756,334.368195 467.184875,328.955566 
	C457.159363,321.674561 446.430054,316.705139 435.167511,312.268768 
	C432.422302,311.187408 430.174225,311.189026 427.825684,313.242004 
	C416.980499,322.722565 407.183014,333.274292 396.968781,343.395172 
	C394.997437,345.348511 392.308441,347.182495 391.918396,350.872437 
	C401.054016,351.707581 408.799927,355.689453 416.305450,360.134491 
	C418.431152,361.393341 421.389069,360.937958 422.834351,363.422699 
	C424.890289,366.957245 428.535889,368.429443 431.858398,370.259491 
	C433.036865,370.908539 434.229431,371.366486 435.000793,372.554352 
	C439.186829,379.000885 442.953461,385.067932 443.929199,393.480072 
	C445.584717,407.752655 447.220428,421.986816 447.257294,436.328552 
	C447.281097,445.579346 451.258179,454.433533 449.559052,463.783569 
	C449.478729,464.225342 449.818726,464.735626 449.930969,465.221405 
	C452.395294,475.887817 454.158661,486.593903 454.654144,497.612823 
	C454.946533,504.115051 454.416321,511.009277 457.463409,517.212463 
	C458.928101,520.194275 458.346069,522.482544 455.830322,524.706726 
	C453.678101,526.609558 451.682648,529.327698 452.855194,532.179626 
	C454.315521,535.731384 452.976624,537.784851 450.654266,539.980591 
	C449.430359,541.137817 448.669556,542.668884 448.472748,544.385681 
	C447.630981,551.728394 443.332825,555.331421 436.163849,556.103882 
	C432.881287,556.457642 429.585144,557.009216 426.402557,557.868835 
	C423.614777,558.621826 421.708923,557.789856 420.650787,555.376587 
	C417.923370,549.156311 411.885803,544.922546 410.349182,537.988037 
	C410.110046,536.908813 409.487885,535.694031 408.659149,535.000061 
	C400.898254,528.500793 395.706879,519.672607 388.356995,512.756470 
	C385.770020,510.322174 382.136383,508.353607 381.618805,503.869141 
	C379.639313,486.718018 372.995453,471.682739 360.705200,459.315216 
	C358.839600,457.437866 356.225006,454.818939 358.407715,452.485565 
	C360.761139,449.969666 363.511780,453.058228 365.990265,454.099823 
	C366.243378,454.206238 366.319550,454.674744 366.551758,454.898376 
	C373.719116,461.800598 379.093231,470.646088 388.643005,474.969025 
	C394.725983,477.722687 399.323212,483.150604 406.437225,484.234528 
	C412.032166,485.087006 413.568909,484.417725 413.605957,478.784698 
	C413.691467,465.790222 413.440277,452.790344 413.735901,439.801971 
	C413.861847,434.269653 411.341003,428.729187 412.794495,423.502319 
	C414.374146,417.821655 413.370911,412.164307 413.104950,406.835052 
	C412.533722,395.388031 411.281006,383.778412 407.529297,372.736694 
	C406.046875,368.373810 403.377441,365.012146 399.384369,362.382965 
	C395.468750,359.804810 390.506165,358.418884 388.319244,353.235626 
	C381.135101,356.436859 374.168793,359.391418 367.363770,362.679871 
	C365.687653,363.489868 363.792969,365.368317 364.530579,367.505188 
	C365.967834,371.669128 364.597198,375.710815 364.409119,379.736084 
	C364.051727,387.384583 361.113892,390.134247 353.828461,392.284027 
	C347.414276,394.176697 340.385986,393.466156 334.377197,397.189880 
	C332.797333,398.168976 330.527771,398.341675 328.574036,398.344879 
	C324.912354,398.350922 321.938202,400.150208 318.659393,401.290924 
	C310.899994,403.990479 303.428345,407.523468 294.795532,407.562897 
	C284.943085,407.607910 276.431213,404.008270 267.880676,399.948242 
	C263.855286,398.036896 259.773468,396.158356 255.550049,394.775421 
	C251.708099,393.517365 249.661743,395.326294 249.869507,399.147491 
	C250.365646,408.273224 250.644913,417.420166 251.499359,426.512695 
	C251.870880,430.466248 251.997360,435.313385 255.944824,437.503662 
	C261.934387,440.827057 268.384979,441.511017 275.225952,439.213226 
	C282.401489,436.803070 288.908844,432.961182 295.971771,430.359711 
	C297.941833,429.634064 299.720703,428.225159 301.505737,427.361298 
	C308.306274,424.070190 312.283356,416.486877 321.154297,416.060333 
	C329.681824,415.650299 338.036102,412.724640 346.279449,417.763947 
	C349.004944,419.430084 352.602966,420.450287 355.783875,420.407654 
	C360.603363,420.342987 362.168060,423.769928 364.659210,426.550323 
	C367.980316,430.256958 367.869385,433.521454 364.208557,436.847748 
	C363.668915,437.338104 363.403717,438.343658 363.358551,439.130768 
	C363.049042,444.525299 360.005524,446.973724 354.871399,447.717133 
	C352.612213,448.044250 350.512909,449.346649 348.271271,449.944672 
	C335.372437,453.386047 322.210449,456.039703 309.610016,460.343353 
	C297.631287,464.434692 287.485199,460.780975 277.214996,455.759216 
	C270.825195,452.634857 264.963440,448.433014 257.995270,446.487732 
	C255.226883,445.714905 253.237534,446.862061 253.665665,449.480560 
	C254.931076,457.219971 253.959366,465.052155 254.802322,472.704407 
	C256.009674,483.664612 253.340210,494.342865 253.759399,505.195282 
	C253.879440,508.302765 253.030319,511.465027 253.891907,514.580872 
	C255.891861,521.813782 252.418991,529.062378 246.286209,533.082520 
	C241.511047,536.212708 235.766785,537.824341 232.018951,542.830933 
	C230.247726,545.197083 226.401093,548.077515 223.272797,545.622192 
	C219.323029,542.522156 215.758331,538.239441 214.719833,533.236877 
	C213.924744,529.406738 213.612411,525.416382 212.627518,521.552063 
	C210.601028,513.601013 210.866440,505.843231 217.046295,499.766449 
	C219.943619,496.917450 220.691101,493.666199 221.617264,490.139343 
	C223.417175,483.285187 221.907028,476.219055 223.309326,469.306335 
	C225.051941,460.716064 226.617233,452.046722 227.496902,443.334595 
	C228.804733,430.382080 229.437241,417.361542 230.381134,404.371704 
	C230.465057,403.216797 230.589020,402.032928 230.926254,400.933655 
	C232.712204,395.111755 234.420227,389.485077 233.940674,383.065948 
	C233.317230,374.720459 231.350006,372.933838 223.352844,376.457672 
	C221.557037,374.179596 219.165405,373.183716 216.074844,373.365509 
	C208.373032,373.818451 203.394333,370.116882 200.704086,362.945618 
	C199.238892,359.039948 196.140839,356.991425 191.906143,356.324219 
	C188.552933,360.142578 187.857590,364.937531 186.609283,369.555817 
	C184.395493,377.745972 181.505203,385.729004 177.031250,392.964966 
	C171.446915,401.996796 167.245819,411.739746 162.272186,421.080566 
	C160.165329,425.037354 156.062393,426.584503 153.929779,430.105225 
	C148.625046,438.862915 140.958878,445.589813 134.181900,453.044617 
	C125.260872,462.857880 115.029533,471.266052 104.708672,479.656342 
	C94.587502,487.884216 84.968674,496.233612 71.512085,498.088928 
	C72.204559,501.158264 72.199112,501.162292 73.887352,503.446442 
	C93.465271,529.934937 116.668518,552.753540 143.551773,571.766663 
	C188.141876,603.302979 237.566162,621.904968 292.052490,626.764832 
	C318.183746,629.095581 344.274597,628.620667 370.177155,624.439941 
	C407.023438,618.492920 441.676086,606.155823 474.657440,587.099304 
M14.992309,347.842560 
	C15.426614,351.805603 15.834619,355.771729 16.299326,359.731201 
	C20.535641,395.826141 31.321775,429.907135 48.030659,462.123749 
	C51.631981,469.067474 55.712364,475.766602 59.694244,482.506226 
	C60.633190,484.095459 62.078457,486.882660 64.156082,484.631104 
	C67.484390,481.024170 72.445526,479.368134 75.233391,475.504395 
	C82.302040,465.707886 92.225121,458.839386 100.846870,450.770935 
	C110.265427,441.956726 117.406914,431.466034 125.799332,421.964600 
	C135.053833,411.487183 144.548187,401.081177 152.531891,389.500610 
	C156.566895,383.647705 161.585205,378.256836 164.508163,371.898254 
	C170.541901,358.772491 175.816544,345.302490 179.048737,331.071533 
	C181.189285,321.646942 182.433624,312.383453 180.485077,302.848755 
	C179.944901,300.205566 178.327682,298.321503 175.992264,297.194275 
	C173.294556,295.892212 172.654297,298.510315 171.467239,299.930084 
	C170.679520,300.872223 169.770645,301.425171 168.564438,301.696411 
	C164.854202,302.530762 162.893280,304.810486 162.696121,308.709045 
	C162.565018,311.301453 161.571487,313.468536 158.947372,314.165344 
	C157.494980,313.359253 157.599548,312.244629 157.698257,311.320190 
	C158.883835,300.217529 163.652878,291.160431 172.946503,284.662994 
	C174.540482,283.548584 176.000793,283.848267 177.669357,284.270782 
	C184.987427,286.123932 191.923813,289.709656 199.686859,289.543915 
	C212.351089,289.273590 224.382156,285.530640 236.515884,282.448914 
	C244.950089,280.306824 253.251373,277.933350 261.590851,282.998138 
	C263.059998,283.890411 265.529419,284.879517 267.231873,283.282593 
	C268.914764,281.704102 268.995483,279.245880 268.398590,277.160553 
	C267.355927,273.518188 266.111115,269.902252 264.569824,266.445251 
	C263.559326,264.178802 261.501556,262.679474 258.850067,263.804932 
	C255.743027,265.123718 253.389618,264.070312 251.096558,262.109589 
	C245.933578,257.694824 240.994629,253.036636 235.761520,248.685135 
	C224.098846,238.987213 214.533646,227.905106 212.547714,211.876053 
	C211.430145,202.855698 210.968842,202.789673 202.173218,205.101746 
	C198.699387,206.014893 194.542862,205.338089 191.877625,208.186203 
	C189.601318,210.618713 186.947922,212.398422 183.974533,213.194214 
	C177.620224,214.894897 171.966995,217.974594 166.394302,221.228928 
	C163.700424,222.802094 160.256256,221.330673 157.924118,223.665024 
	C149.284058,232.313187 135.890869,232.016602 126.979095,240.141693 
	C126.868637,240.242386 126.664589,240.289978 126.507683,240.283096 
	C117.548103,239.890732 108.886612,243.988129 99.919914,242.349411 
	C94.787621,241.411484 89.526482,239.992126 85.520699,236.348007 
	C78.892105,230.317871 79.612953,222.134781 79.750420,214.243713 
	C79.772980,212.948288 80.225578,211.757629 79.670540,210.383835 
	C76.990479,203.750473 78.901283,195.243683 84.756737,192.109589 
	C92.028038,188.217667 97.661461,182.767014 102.509270,176.409302 
	C107.847397,169.408524 112.403641,161.865250 114.478073,153.184113 
	C115.116409,150.512787 114.953400,147.177383 118.754974,148.095001 
	C122.298195,148.950256 121.388725,152.032715 120.620499,154.725464 
	C117.838249,164.477692 118.940048,174.270294 120.595764,184.025208 
	C120.983246,186.308151 121.709137,188.748840 124.992348,188.321762 
	C136.479218,186.827606 147.777771,184.321884 158.920914,181.276550 
	C177.762939,176.127121 195.391022,167.442093 214.337143,162.378494 
	C229.060837,158.443405 242.846603,151.414642 257.606415,147.316818 
	C260.386505,146.544952 261.220734,144.938477 259.254913,142.088470 
	C256.913757,138.694275 254.100647,135.908081 250.512909,134.104736 
	C242.072937,129.862457 235.798615,122.756180 228.797897,116.850555 
	C220.005219,109.433289 214.591324,98.861687 209.814224,88.138588 
	C206.872238,81.534767 203.694717,75.133720 201.357010,68.215042 
	C199.210999,61.863785 195.966187,55.797203 192.114105,50.080261 
	C188.088348,44.105587 188.428848,43.747162 182.341385,46.930393 
	C111.767487,83.834686 61.748421,139.217056 33.131264,213.620163 
	C23.353027,239.043076 17.583521,265.448273 15.101151,292.626770 
	C13.445311,310.755890 13.250538,328.825134 14.992309,347.842560 
M316.959259,156.934479 
	C316.305145,156.909683 315.559265,156.664993 315.011047,156.893845 
	C309.053101,159.380798 302.998535,161.510178 296.807709,163.408279 
	C291.864502,164.923859 285.224396,165.773666 286.070770,173.772308 
	C286.096924,174.019623 285.711761,174.308823 285.521790,174.580872 
	C281.945770,179.702332 280.965332,185.564896 281.446899,191.548019 
	C282.120331,199.915558 286.433136,207.860291 284.358490,216.601212 
	C284.117340,217.617279 284.831329,218.844498 285.036560,219.985687 
	C285.363983,221.806213 286.202484,223.315109 288.221985,223.108902 
	C290.671448,222.858795 290.682007,220.793121 290.658966,218.917114 
	C290.647400,217.974304 289.436066,217.256287 290.184357,216.021683 
	C293.168671,215.369415 294.881866,213.091156 296.918701,210.817047 
	C300.941010,206.326111 301.528473,200.196198 305.085907,195.563522 
	C312.630890,185.737946 315.480591,173.859604 319.335663,162.433884 
	C320.026337,160.386826 319.609314,158.473785 316.959259,156.934479 
M416.093262,279.840485 
	C417.138336,276.778534 414.810425,274.877380 413.588226,272.603363 
	C411.686646,269.065247 408.527100,269.741028 407.324127,272.244415 
	C405.202820,276.658691 401.475403,279.642181 398.945007,283.609467 
	C394.899078,289.952850 391.110565,296.534668 384.815735,301.056793 
	C382.359222,302.821503 380.659393,305.328949 378.557922,307.354919 
	C374.304718,311.455322 371.046112,316.633240 365.412048,319.396484 
	C363.354950,320.405396 360.224182,321.173767 359.857666,324.415833 
	C367.993835,329.245941 370.876404,328.957977 377.626801,323.704010 
	C381.821503,320.439209 385.624634,316.794891 389.554962,313.256409 
	C391.865631,311.176056 395.281647,309.976868 396.131836,306.784180 
	C397.029785,303.412201 399.079437,301.442444 401.721191,299.569702 
	C403.629303,298.217102 405.037506,296.273926 405.479523,293.855377 
	C405.699463,292.651978 406.034027,291.472504 407.209656,290.995636 
	C411.998627,289.053040 413.723145,284.617554 416.093262,279.840485 
M222.425018,337.853546 
	C224.376617,337.172668 225.757248,335.730957 227.212631,334.354675 
	C235.387054,326.624451 234.946838,324.327911 224.125000,320.671173 
	C219.389923,319.071167 215.521912,316.734467 212.654541,312.478485 
	C210.602371,309.432465 207.797241,306.909271 204.130646,304.527069 
	C202.768936,312.077576 202.359329,319.309418 198.899872,325.656708 
	C196.621780,329.836426 197.806992,334.483154 196.697876,338.814575 
	C196.235855,340.618805 197.505203,342.037628 199.362045,342.449219 
	C207.428619,344.237274 215.168854,344.136597 222.425018,337.853546 
M325.880981,344.431091 
	C321.990540,346.517181 318.952026,349.987091 314.302979,350.921143 
	C311.630981,351.457947 310.816681,354.097443 311.366791,356.506744 
	C312.009094,359.319702 314.214874,357.817291 315.872070,357.531769 
	C320.193146,356.787354 324.269531,354.729279 328.888947,355.542816 
	C331.700958,356.038025 334.460541,355.311676 337.126465,354.172943 
	C339.850464,353.009369 342.444122,353.175659 345.182861,354.773987 
	C347.405487,356.071136 349.725067,358.163544 352.864441,356.920166 
	C352.820923,356.164948 352.924805,355.624023 352.745270,355.204315 
	C350.243958,349.357300 347.048981,343.773834 346.390015,337.252197 
	C346.220490,335.574341 344.729340,334.896973 343.439026,335.872375 
	C338.325195,339.738129 331.586426,340.176239 325.880981,344.431091 
M263.009186,367.352539 
	C260.855988,363.965424 262.839325,359.339417 259.785004,356.043152 
	C253.996704,357.771271 250.083038,361.752319 246.038055,365.317352 
	C246.840378,367.024353 248.683624,365.204926 249.012756,367.263000 
	C245.644623,368.275055 245.184433,370.477600 246.561630,373.445740 
	C247.681686,375.859711 248.656342,378.340851 249.713776,380.784302 
	C250.342026,382.235962 251.319748,383.428772 252.972122,383.552399 
	C257.320587,383.877838 261.631592,383.796631 265.568878,381.503540 
	C267.509644,380.373291 268.443481,378.509033 266.528168,377.125397 
	C263.214203,374.731293 263.857025,371.307251 263.009186,367.352539 
M259.865356,177.565765 
	C255.942963,180.217010 251.059250,180.414139 246.962997,182.615784 
	C243.540421,184.455322 241.809937,191.172485 243.979324,194.964203 
	C245.956192,198.419495 249.480576,198.544647 252.290146,196.956833 
	C261.890320,191.531418 267.109802,181.843323 275.377533,173.283401 
	C268.755249,172.096573 264.777710,175.290924 259.865356,177.565765 
z"/>
</svg>